<?xml version="1.0" encoding="utf-8"?>
<!-- Generator: Adobe Illustrator 24.2.0, SVG Export Plug-In . SVG Version: 6.00 Build 0)  -->
<svg version="1.1" id="Layer_1" xmlns="http://www.w3.org/2000/svg" xmlns:xlink="http://www.w3.org/1999/xlink" x="0px" y="0px"
	 viewBox="0 0 500 500" style="enable-background:new 0 0 500 500;" xml:space="preserve">
<style type="text/css">
	.st0{fill:#311049;}
	.st1{fill:#BCBEC0;}
	.st2{fill:#FFFFFF;}
	.st3{fill:#D1D3D4;}
	.st4{fill:none;stroke:#000000;stroke-width:3;stroke-miterlimit:10;}
	.st5{fill:none;stroke:#000000;stroke-width:5.1432;stroke-miterlimit:10;}
	.st6{fill:#ECF8FE;}
</style>
<g>
	<path d="M176.3,420c0,0-29.8,13.3-37.2,23.5c-7.4,10.3,5,9.6,10.1,7s39.6,3.1,44.2,0c4.6-3.1,2,0.2,2,0.2S181,415.7,176.3,420z"/>
	<path class="st1" d="M344.3,182.6c15.6,55.5,30.9,233.2,30.9,233.2c0,26.8-24.4,38.5-51.2,38.5h-74.9c-29.3,0-55.5-13.3-72.8-34.3
		c0,0-18.2,1-27.8-8.6c-9.6-9.6-21.9-21-23.6-63c-1.7-42,15.8-67.4,15.8-67.4s-17.1-63.1,16.1-168.2v0c7-25.6,30.4-44.5,58.3-44.5
		h50.8C324.8,68.2,315.1,78.6,344.3,182.6z"/>
	<path d="M283.6,227.9c0,0,48.4-32.8,49.5-64.7c0.8-21-7.4-33.8-19.5-37.7c-56.5-17.9-86.8-9-86.8-9c-12.7-0.5,1.2,50.5,6.1,62.2
		L251,222C256.8,235.6,248.7,249.4,283.6,227.9z"/>
	<path class="st2" d="M301.3,167.8c-1.3-25-81.1-51.1-79.4-33.9c1.8,18.3,12.5,60.8,23.2,74C258.4,224.2,302.6,193.6,301.3,167.8z"
		/>
	<path d="M254.1,255c5.9-5.5,16.6-30,16.6-30c0.2-0.4,0-0.9-0.5-0.9l-18-3.2c-0.4-0.1-1.2,0-0.8,0.7c3.9,6.4,2.7,29.7,2.7,29.7
		C254.2,251.9,253.3,255.7,254.1,255z"/>
	<path class="st3" d="M221.8,124.7c0,0-37-43.2-34-53.7c2.9-10.5,52.1-30.2,77.5-24.1s38.4,13.1,46.1,24.8
		c7.7,11.7,22.2,80.1,21.6,83.4C332.2,158.5,291.2,90.1,221.8,124.7z"/>
	<path class="st3" d="M232.3,180.9c3.1,7.5,12.6,29.8,14.7,31.5c5.4,4.4,8.5,82.6,4.3,86.9c-4.4,4.5-9.1,32.4-34.1,55.6
		c-25,23.2-1.3,91.5-3.5,95.9c-2.2,4.4-17.1,1.8-18.4,0c-1.3-1.8-37.2-67.8-28-102s7.4-38.5,22.3-66.5c14.9-28-4.4-81.9-0.9-93.2
		C192.3,177.6,228.1,170.7,232.3,180.9z"/>
	<path class="st5" d="M282.5,167.8c0,10.8-2,19.5-4.4,19.5"/>
</g>
</svg>
